<svg xmlns="http://www.w3.org/2000/svg" viewBox="0 0 100 100">
    <!-- Background -->
    <rect width="100" height="100" fill="#1e3a8a" rx="15"/>
    
    <!-- Prison bars -->
    <rect x="15" y="20" width="8" height="60" fill="#cbd5e1" rx="2"/>
    <rect x="30" y="20" width="8" height="60" fill="#cbd5e1" rx="2"/>
    <rect x="45" y="20" width="8" height="60" fill="#cbd5e1" rx="2"/>
    <rect x="60" y="20" width="8" height="60" fill="#cbd5e1" rx="2"/>
    <rect x="75" y="20" width="8" height="60" fill="#cbd5e1" rx="2"/>
    
    <!-- Top horizontal bar -->
    <rect x="10" y="18" width="80" height="6" fill="#94a3b8" rx="2"/>
    
    <!-- Bottom horizontal bar -->
    <rect x="10" y="76" width="80" height="6" fill="#94a3b8" rx="2"/>
    
    <!-- Shadow effect on bars -->
    <rect x="16" y="20" width="3" height="60" fill="#64748b" opacity="0.3" rx="1"/>
    <rect x="31" y="20" width="3" height="60" fill="#64748b" opacity="0.3" rx="1"/>
    <rect x="46" y="20" width="3" height="60" fill="#64748b" opacity="0.3" rx="1"/>
    <rect x="61" y="20" width="3" height="60" fill="#64748b" opacity="0.3" rx="1"/>
    <rect x="76" y="20" width="3" height="60" fill="#64748b" opacity="0.3" rx="1"/>
</svg>
